<?xml version="1.0" encoding="UTF-8"?>
<!DOCTYPE svg PUBLIC "-//W3C//DTD SVG 1.1//EN" "http://www.w3.org/Graphics/SVG/1.1/DTD/svg11.dtd">
<svg version="1.1" xmlns="http://www.w3.org/2000/svg" xmlns:xlink="http://www.w3.org/1999/xlink" x="0" y="0" width="192.716" height="120.468" viewBox="0, 0, 192.716, 120.468">
  <g id="Layer_1" transform="translate(-16.185, -727.403)">
    <g id="r0b.svg">
      <path d="M202.877,818.717 C203.801,819.266 203.529,818.909 203.874,819.62 C204.258,820.968 202.97,823.268 200.998,824.757 L199.692,825.896 L197.146,827.899 L194.548,829.723 L191.917,831.393 L189.264,832.918 L186.596,834.303 L183.917,835.564 L181.23,836.698 L178.535,837.72 L175.835,838.628 L173.128,839.436 L170.416,840.139 L167.698,840.754 L164.97,841.285 L162.239,841.724 L159.5,842.085 L156.752,842.374 L153.995,842.596 L151.227,842.755 L148.457,842.842 L145.678,842.871 L142.889,842.847 L140.091,842.775 L137.283,842.657 L134.471,842.488 L131.653,842.278 L128.826,842.032 L125.986,841.753 L121.717,841.283 L116.022,840.556 L110.302,839.76 L104.569,838.914 L98.828,838.041 L93.077,837.176 L87.332,836.333 L81.588,835.546 L75.856,834.84 L70.134,834.235 L65.851,833.869 L63.01,833.669 L60.179,833.507 L57.354,833.39 L54.537,833.321 L51.731,833.302 L48.939,833.328 L46.158,833.412 L43.388,833.556 L40.632,833.76 L37.895,834.019 L35.17,834.347 L32.461,834.747 L29.775,835.2 L27.105,835.73 L24.428,836.334 L23.059,836.671 C21.45,837.134 20.654,836.16 21.283,834.495 C21.911,832.83 23.726,831.104 25.336,830.641 L26.756,830.177 L29.676,829.309 L32.627,828.535 L35.585,827.848 L38.542,827.263 L41.504,826.756 L44.472,826.323 L47.439,825.972 L50.408,825.691 L53.381,825.473 L56.358,825.315 L59.332,825.222 L62.306,825.184 L65.283,825.195 L68.261,825.252 L71.236,825.356 L75.688,825.591 L81.624,826.023 L87.554,826.576 L93.467,827.219 L99.359,827.924 L105.219,828.673 L111.049,829.429 L116.837,830.175 L122.58,830.882 L128.275,831.517 L132.498,831.944 L135.29,832.193 L138.072,832.41 L140.837,832.591 L143.583,832.737 L146.305,832.85 L149.008,832.917 L151.689,832.938 L154.349,832.907 L156.984,832.824 L159.587,832.696 L162.166,832.51 L164.716,832.261 L167.237,831.948 L169.727,831.571 L172.178,831.137 L174.597,830.631 L176.978,830.053 L179.319,829.411 L181.621,828.694 L183.88,827.91 L186.097,827.05 L188.273,826.124 L190.407,825.12 L192.504,824.05 L194.568,822.911 L196.61,821.706 L198.647,820.454 L199.61,819.877 C200.853,818.94 201.386,818.807 202.877,818.717 z" fill="#FFFFFF"/>
      <path d="M202.575,813.726 C203.575,813.665 204.57,813.907 205.431,814.418 C205.515,814.468 205.556,814.49 205.61,814.517 C205.66,814.542 205.746,814.585 205.823,814.625 C206.084,814.761 206.322,814.904 206.603,815.116 C207.367,815.692 207.822,816.315 208.176,817.023 C208.232,817.134 208.354,817.399 208.371,817.434 C208.499,817.698 208.604,817.971 208.684,818.253 C209.637,822.385 207.32,825.949 204.279,828.521 L204.283,828.526 L202.978,829.665 C202.915,829.719 202.85,829.773 202.785,829.824 L200.239,831.828 C200.167,831.885 200.094,831.939 200.019,831.992 L197.421,833.816 C197.358,833.86 197.293,833.903 197.228,833.945 L194.596,835.615 L194.409,835.728 L191.756,837.253 L191.568,837.356 L188.9,838.741 L188.725,838.827 L186.046,840.088 L185.861,840.171 L183.174,841.305 L183.002,841.373 L180.307,842.395 L180.129,842.458 L177.43,843.367 L177.264,843.419 L174.557,844.227 L174.383,844.275 L171.672,844.979 L171.519,845.016 L168.8,845.631 L168.652,845.662 L165.924,846.193 L165.763,846.221 L163.033,846.66 L162.892,846.681 L160.153,847.042 L160.024,847.057 L157.276,847.347 L157.153,847.358 L154.396,847.58 L154.281,847.588 L151.513,847.747 L151.383,847.753 L148.613,847.839 L148.509,847.841 L145.636,847.871 L142.759,847.846 L139.88,847.77 L136.983,847.648 L134.099,847.474 L131.22,847.259 L128.338,847.008 L125.437,846.723 L121.085,846.243 L115.333,845.509 L109.573,844.707 L103.816,843.857 L98.084,842.985 L92.351,842.123 L86.653,841.286 L80.977,840.509 L75.33,839.813 L69.656,839.212 L65.5,838.857 L62.724,838.661 L59.971,838.503 L57.232,838.388 L54.504,838.321 L51.778,838.302 L49.04,838.328 L46.361,838.408 L43.705,838.546 L41.05,838.743 L38.43,838.991 L35.833,839.303 L33.245,839.685 L30.677,840.119 L28.141,840.622 L25.622,841.189 L24.253,841.526 L24.251,841.518 C18.381,842.919 14.939,838.129 16.605,832.728 C17.92,829.495 20.527,827.089 23.783,825.898 L23.78,825.889 L25.2,825.424 L25.331,825.384 L28.251,824.516 L28.408,824.472 L31.359,823.698 L31.496,823.665 L34.455,822.978 L34.615,822.943 L37.572,822.358 L37.698,822.335 L40.66,821.828 L40.783,821.808 L43.751,821.376 L43.884,821.358 L46.851,821.007 L46.967,820.994 L49.937,820.713 L50.043,820.704 L53.016,820.486 L53.116,820.48 L56.093,820.322 L56.203,820.317 L59.267,820.223 L62.325,820.184 L65.379,820.196 L68.436,820.255 L71.5,820.363 L76.05,820.604 L81.987,821.036 L82.089,821.044 L88.095,821.605 L94.06,822.255 L99.994,822.964 L105.862,823.715 L111.688,824.47 L117.448,825.212 L123.134,825.912 L128.778,826.542 L132.941,826.964 L135.679,827.208 L138.4,827.42 L141.102,827.598 L143.789,827.742 L146.43,827.851 L149.045,827.918 L151.631,827.938 L154.191,827.909 L156.739,827.83 L159.287,827.705 L161.742,827.527 L164.165,827.291 L166.557,826.994 L168.915,826.637 L171.23,826.227 L173.494,825.754 L175.728,825.211 L177.914,824.611 L180.057,823.945 L182.156,823.216 L184.212,822.418 L186.23,821.559 L188.206,820.63 L190.159,819.633 L192.09,818.568 L193.992,817.446 L196.08,816.163 L196.887,815.68 C198.52,814.322 200.534,813.95 202.575,813.726 z M202.877,818.717 C201.386,818.807 200.853,818.94 199.61,819.877 L198.646,820.454 L196.61,821.706 L194.568,822.911 L192.504,824.05 L190.407,825.12 L188.273,826.124 L186.097,827.05 L183.88,827.91 L181.621,828.694 L179.319,829.411 L176.978,830.053 L174.597,830.631 L172.178,831.137 L169.727,831.571 L167.237,831.948 L164.716,832.261 L162.166,832.51 L159.587,832.696 L156.984,832.824 L154.349,832.907 L151.689,832.938 L149.008,832.917 L146.305,832.85 L143.583,832.737 L140.837,832.592 L138.072,832.41 L135.29,832.193 L132.498,831.944 L128.275,831.517 L122.58,830.882 L116.837,830.175 L111.049,829.429 L105.219,828.673 L99.359,827.924 L93.466,827.219 L87.554,826.576 L81.624,826.023 L75.688,825.591 L71.236,825.356 L68.261,825.252 L65.283,825.195 L62.306,825.184 L59.332,825.222 L56.358,825.315 L53.381,825.473 L50.408,825.691 L47.439,825.972 L44.472,826.323 L41.504,826.756 L38.542,827.263 L35.585,827.848 L32.627,828.535 L29.676,829.309 L26.756,830.177 L25.336,830.641 C23.726,831.104 21.911,832.83 21.283,834.495 C20.654,836.16 21.45,837.134 23.059,836.671 L24.428,836.334 L27.105,835.73 L29.775,835.2 L32.461,834.747 L35.17,834.347 L37.895,834.019 L40.632,833.76 L43.388,833.556 L46.158,833.412 L48.939,833.328 L51.731,833.302 L54.537,833.321 L57.354,833.39 L60.179,833.507 L63.01,833.669 L65.851,833.869 L70.134,834.235 L75.856,834.84 L81.588,835.546 L87.332,836.333 L93.077,837.176 L98.828,838.041 L104.569,838.914 L110.302,839.76 L116.022,840.556 L121.717,841.283 L125.986,841.754 L128.826,842.032 L131.652,842.278 L134.471,842.488 L137.283,842.657 L140.091,842.775 L142.889,842.848 L145.678,842.871 L148.457,842.842 L151.227,842.755 L153.995,842.596 L156.752,842.374 L159.5,842.085 L162.239,841.724 L164.969,841.285 L167.697,840.754 L170.416,840.139 L173.128,839.436 L175.835,838.628 L178.535,837.72 L181.23,836.698 L183.917,835.564 L186.596,834.303 L189.264,832.918 L191.917,831.393 L194.548,829.723 L197.146,827.9 L199.692,825.896 L200.998,824.757 C202.97,823.268 204.258,820.968 203.874,819.62 C203.529,818.909 203.801,819.266 202.877,818.717 z" fill="#000000"/>
      <path d="M112.52,740.226 L113.459,740.241 L114.368,740.298 L115.256,740.38 L116.123,740.49 L116.96,740.635 L117.776,740.805 L118.572,740.997 L119.348,741.214 L120.099,741.457 L120.828,741.726 L121.548,742.021 L122.583,742.502 L123.875,743.208 L125.081,743.998 L126.209,744.862 L127.26,745.796 L128.228,746.801 L129.121,747.87 L129.938,748.998 L130.683,750.183 L131.35,751.424 L131.945,752.715 L132.47,754.052 L132.926,755.432 L133.31,756.854 L133.624,758.315 L133.872,759.809 L134.055,761.334 L134.172,762.886 L134.226,764.464 L134.213,766.065 L134.134,767.689 L133.992,769.328 L133.789,770.981 L133.525,772.646 L133.2,774.32 L132.814,776 L132.368,777.685 L131.862,779.372 L131.29,781.06 L130.655,782.746 L129.96,784.426 L129.202,786.1 L128.38,787.765 L127.494,789.419 L126.542,791.058 L125.523,792.68 L124.436,794.281 L123.276,795.857 L122.046,797.402 L120.748,798.908 L119.383,800.37 L117.955,801.778 L116.469,803.122 L114.931,804.392 L113.351,805.58 L111.735,806.677 L110.091,807.677 L108.428,808.573 L106.751,809.363 L105.064,810.048 L103.37,810.626 L101.67,811.098 L99.964,811.464 L98.253,811.724 L96.534,811.879 L94.807,811.928 L93.105,811.871 L92.301,811.806 C92.28,811.805 92.259,811.803 92.238,811.801 L91.712,811.743 L90.744,811.596 L89.816,811.404 L88.927,811.167 L88.075,810.887 L87.259,810.566 L86.48,810.206 L85.736,809.808 L85.027,809.375 L84.352,808.908 L83.71,808.409 L83.099,807.88 L82.52,807.321 L81.972,806.735 L81.454,806.124 L80.964,805.487 L80.502,804.829 L80.068,804.149 L79.661,803.448 L79.276,802.718 L78.749,801.598 L78.137,800.068 L77.615,798.491 L77.179,796.878 L76.823,795.239 L76.545,793.604 L76.436,792.813 C76.434,792.799 76.432,792.785 76.43,792.77 L76.34,791.985 L76.219,790.423 L76.163,788.815 L76.171,787.169 L76.234,785.495 L76.35,783.801 L76.513,782.094 L76.72,780.383 L76.966,778.676 L77.249,776.98 L77.563,775.305 L77.908,773.656 L78.278,772.042 L78.669,770.471 L79.077,768.951 L79.494,767.506 L79.698,766.836 C79.7,766.828 79.703,766.819 79.705,766.811 L79.987,765.906 L80.586,764.041 L81.25,762.096 L81.99,760.093 L82.815,758.054 L83.727,756.026 L84.478,754.518 L85.029,753.496 L85.619,752.476 L86.255,751.461 L86.94,750.453 L87.679,749.454 L88.475,748.47 L89.334,747.508 L90.254,746.58 L91.231,745.701 L92.255,744.888 L93.313,744.158 L94.387,743.528 L95.466,743.001 L96.541,742.578 L97.61,742.254 L98.675,742.026 L99.738,741.897 L100.802,741.862 L101.849,741.917 L102.339,741.98 C103.331,742.038 103.473,743.125 102.657,744.409 C101.84,745.692 100.374,746.686 99.382,746.627 L98.849,746.629 L97.906,746.683 L97.057,746.801 L96.278,746.971 L95.574,747.183 L94.942,747.434 L94.385,747.712 L93.897,748.008 L93.469,748.314 L93.087,748.629 L92.732,748.963 L92.389,749.324 L92.046,749.725 L91.696,750.173 L91.338,750.673 L90.973,751.228 L90.605,751.835 L90.235,752.49 L89.866,753.19 L89.503,753.93 L88.962,755.129 L88.289,756.795 L87.674,758.502 L87.105,760.242 L86.576,761.985 L86.085,763.702 L85.856,764.531 L85.863,764.505 L85.684,765.169 L85.349,766.492 L85.031,767.861 L84.727,769.285 L84.443,770.753 L84.181,772.257 L83.942,773.789 L83.734,775.337 L83.559,776.893 L83.422,778.448 L83.325,779.992 L83.272,781.517 L83.266,783.014 L83.311,784.473 L83.407,785.888 L83.558,787.248 L83.652,787.881 L83.646,787.838 L83.778,788.616 L84.082,790.107 L84.451,791.56 L84.89,792.983 L85.404,794.365 L85.995,795.693 L86.486,796.639 L86.836,797.243 L87.211,797.839 L87.607,798.416 L88.025,798.971 L88.464,799.503 L88.925,800.01 L89.409,800.493 L89.916,800.949 L90.445,801.376 L90.998,801.775 L91.574,802.144 L92.174,802.482 L92.798,802.787 L93.446,803.059 L94.118,803.297 L94.816,803.5 L95.539,803.666 L96.287,803.796 L97.061,803.887 L97.43,803.915 L97.367,803.91 L98.187,803.956 L99.694,803.969 L101.119,803.893 L102.496,803.734 L103.821,803.497 L105.091,803.189 L106.305,802.818 L107.46,802.388 L108.557,801.907 L109.597,801.38 L110.582,800.813 L111.515,800.212 L112.403,799.575 L113.253,798.902 L114.07,798.192 L114.861,797.441 L115.631,796.646 L116.382,795.804 L117.119,794.912 L117.839,793.969 L118.543,792.974 L119.232,791.929 L119.9,790.834 L120.544,789.693 L121.16,788.509 L121.747,787.284 L122.302,786.024 L122.821,784.732 L123.301,783.412 L123.743,782.068 L124.147,780.704 L124.507,779.324 L124.822,777.931 L125.089,776.531 L125.307,775.128 L125.474,773.724 L125.591,772.324 L125.654,770.932 L125.668,769.549 L125.63,768.178 L125.536,766.824 L125.385,765.492 L125.177,764.185 L124.91,762.905 L124.585,761.656 L124.205,760.437 L123.764,759.256 L123.261,758.116 L122.696,757.018 L122.075,755.964 L121.389,754.958 L120.639,754.006 L119.825,753.107 L118.952,752.261 L118.012,751.475 L117.005,750.753 L115.938,750.09 L115.105,749.641 L114.534,749.364 L113.933,749.1 L113.317,748.852 L112.687,748.616 L112.04,748.399 L111.374,748.201 L110.69,748.023 L109.996,747.852 L109.285,747.698 L108.556,747.565 L107.817,747.437 L107.066,747.317 L106.302,747.205 L105.937,747.141 C104.447,747.131 104.155,745.607 105.286,743.737 C106.416,741.867 108.54,740.359 110.03,740.37 L110.559,740.312 L111.553,740.249 L112.52,740.226 z" fill="#FFFFFF"/>
      <path d="M112.602,735.226 L113.541,735.242 C113.618,735.243 113.694,735.246 113.771,735.251 L114.68,735.308 L114.829,735.319 L115.717,735.402 L115.881,735.419 L116.748,735.529 C116.825,735.539 116.903,735.55 116.98,735.563 L117.817,735.709 L117.976,735.74 L118.792,735.909 L118.953,735.945 L119.749,736.138 L119.914,736.181 L120.69,736.397 L120.893,736.458 L121.643,736.702 L121.827,736.765 L122.556,737.034 L122.726,737.1 L123.446,737.395 C123.516,737.424 123.585,737.454 123.653,737.486 L124.688,737.966 C124.787,738.012 124.884,738.061 124.98,738.114 L126.272,738.82 C126.39,738.884 126.504,738.953 126.616,739.026 L127.822,739.816 C127.924,739.883 128.024,739.954 128.122,740.029 L129.249,740.893 C129.346,740.967 129.44,741.044 129.531,741.125 L130.581,742.059 C130.678,742.144 130.771,742.234 130.86,742.326 L131.829,743.332 C131.912,743.418 131.991,743.506 132.068,743.598 L132.96,744.667 C133.033,744.755 133.103,744.844 133.169,744.936 L133.987,746.064 C134.051,746.154 134.113,746.245 134.171,746.338 L134.916,747.523 C134.976,747.618 135.033,747.716 135.087,747.816 L135.754,749.057 C135.802,749.146 135.847,749.237 135.89,749.329 L136.485,750.62 C136.526,750.708 136.564,750.797 136.599,750.887 L137.124,752.224 C137.158,752.309 137.189,752.396 137.218,752.483 L137.674,753.862 C137.703,753.951 137.73,754.041 137.754,754.131 L138.138,755.554 C138.16,755.636 138.18,755.719 138.198,755.802 L138.512,757.262 C138.529,757.34 138.544,757.418 138.557,757.496 L138.805,758.99 C138.817,759.065 138.828,759.14 138.837,759.215 L139.019,760.74 L139.04,760.956 L139.158,762.509 L139.169,762.716 L139.223,764.294 L139.225,764.503 L139.213,766.105 L139.207,766.31 L139.128,767.933 L139.115,768.119 L138.974,769.758 L138.955,769.937 L138.752,771.59 L138.727,771.765 L138.463,773.43 L138.433,773.599 L138.108,775.273 L138.073,775.439 L137.688,777.119 L137.648,777.28 L137.202,778.965 L137.157,779.124 L136.65,780.81 L136.597,780.977 L136.025,782.665 L135.969,782.821 L135.335,784.507 L135.275,784.659 L134.579,786.339 L134.514,786.489 L133.756,788.163 L133.685,788.313 L132.864,789.978 L132.787,790.127 L131.9,791.781 L131.818,791.93 L130.866,793.569 L130.776,793.718 L129.757,795.34 L129.659,795.489 L128.572,797.09 L128.462,797.245 L127.302,798.821 L127.187,798.971 L125.958,800.516 L125.834,800.665 L124.536,802.172 L124.403,802.321 L123.037,803.783 L122.893,803.932 L121.465,805.339 L121.308,805.487 L119.823,806.83 L119.654,806.976 L118.117,808.246 C118.057,808.295 117.997,808.343 117.935,808.39 L116.354,809.577 C116.29,809.625 116.225,809.672 116.159,809.717 L114.543,810.814 C114.474,810.861 114.404,810.906 114.333,810.949 L112.69,811.949 C112.615,811.994 112.539,812.038 112.461,812.08 L110.798,812.975 C110.72,813.017 110.64,813.057 110.56,813.095 L108.883,813.886 C108.8,813.925 108.716,813.962 108.631,813.996 L106.944,814.681 C106.857,814.716 106.768,814.749 106.679,814.78 L104.985,815.358 C104.893,815.389 104.8,815.418 104.707,815.444 L103.007,815.916 C102.912,815.942 102.816,815.966 102.719,815.987 L101.013,816.353 C100.915,816.374 100.816,816.392 100.716,816.407 L99.004,816.667 C98.904,816.683 98.802,816.695 98.701,816.704 L96.982,816.859 C96.88,816.868 96.778,816.874 96.675,816.877 L94.947,816.926 C94.845,816.929 94.743,816.928 94.64,816.925 L92.938,816.868 C92.86,816.866 92.781,816.861 92.703,816.855 L91.983,816.796 C91.862,816.788 91.862,816.788 91.689,816.771 L91.163,816.713 L90.963,816.687 L89.996,816.54 C89.906,816.527 89.817,816.51 89.728,816.492 L88.799,816.299 C88.708,816.28 88.618,816.259 88.528,816.235 L87.638,815.998 C87.547,815.973 87.456,815.946 87.366,815.917 L86.514,815.637 C86.423,815.607 86.332,815.574 86.243,815.539 L85.428,815.218 C85.338,815.183 85.25,815.145 85.162,815.105 L84.383,814.745 C84.295,814.704 84.209,814.661 84.124,814.615 L83.38,814.218 C83.295,814.173 83.212,814.125 83.13,814.075 L82.421,813.642 C82.34,813.593 82.262,813.542 82.184,813.488 L81.509,813.021 C81.433,812.969 81.358,812.914 81.284,812.857 L80.642,812.358 C80.57,812.302 80.501,812.245 80.432,812.185 L79.822,811.656 C79.756,811.598 79.691,811.539 79.627,811.478 L79.048,810.919 C78.987,810.86 78.928,810.8 78.87,810.738 L78.322,810.152 C78.266,810.093 78.212,810.032 78.159,809.969 L77.64,809.357 C77.589,809.298 77.54,809.237 77.492,809.174 L77.002,808.538 C76.957,808.479 76.912,808.419 76.869,808.358 L76.408,807.699 L76.288,807.52 L75.853,806.839 L75.743,806.658 L75.336,805.958 L75.24,805.783 L74.854,805.053 C74.818,804.985 74.784,804.917 74.751,804.847 L74.225,803.727 C74.182,803.638 74.143,803.547 74.106,803.455 L73.494,801.925 C73.456,801.83 73.421,801.735 73.389,801.638 L72.868,800.061 C72.839,799.973 72.813,799.885 72.788,799.796 L72.352,798.183 C72.331,798.102 72.311,798.021 72.293,797.939 L71.937,796.3 C71.921,796.226 71.907,796.152 71.894,796.078 L71.616,794.443 L71.592,794.286 L71.491,793.555 C71.483,793.495 71.483,793.495 71.476,793.445 L71.462,793.337 L71.373,792.552 L71.355,792.372 L71.234,790.81 L71.222,790.596 L71.166,788.989 L71.163,788.792 L71.171,787.146 L71.174,786.979 L71.238,785.305 L71.246,785.155 L71.362,783.46 L71.373,783.325 L71.536,781.618 L71.549,781.494 L71.756,779.783 L71.771,779.669 L72.018,777.962 L72.034,777.855 L72.316,776.159 L72.334,776.06 L72.648,774.384 L72.669,774.28 L73.035,772.538 L73.426,770.834 L73.84,769.175 L74.273,767.565 L74.71,766.05 L74.903,765.417 C74.9,765.427 74.9,765.427 74.897,765.439 L74.932,765.323 L75.227,764.376 L75.854,762.427 L76.517,760.482 L76.56,760.363 L77.3,758.36 L77.355,758.217 L78.18,756.178 L78.254,756.005 L79.166,753.976 L79.251,753.797 L80.002,752.289 L80.078,752.143 L80.629,751.121 L80.702,750.991 L81.292,749.971 L81.382,749.823 L82.017,748.808 L82.119,748.651 L82.804,747.643 L82.92,747.481 L83.658,746.482 L83.792,746.309 L84.589,745.324 C84.639,745.262 84.691,745.201 84.745,745.141 L85.603,744.179 C85.661,744.113 85.721,744.05 85.783,743.987 L86.703,743.059 C86.77,742.992 86.839,742.926 86.91,742.862 L87.888,741.983 C87.964,741.914 88.043,741.847 88.124,741.783 L89.148,740.971 C89.235,740.902 89.324,740.836 89.415,740.773 L90.472,740.043 C90.573,739.974 90.676,739.908 90.782,739.846 L91.857,739.215 C91.967,739.151 92.08,739.09 92.195,739.034 L93.273,738.508 C93.391,738.45 93.511,738.397 93.633,738.349 L94.708,737.926 C94.834,737.876 94.962,737.831 95.092,737.792 L96.161,737.469 C96.294,737.428 96.429,737.394 96.564,737.365 L97.63,737.137 C97.775,737.106 97.922,737.081 98.069,737.063 L99.132,736.934 C99.278,736.916 99.425,736.904 99.573,736.899 L100.637,736.864 C100.78,736.86 100.924,736.861 101.067,736.869 L102.114,736.924 C102.236,736.931 102.358,736.942 102.479,736.957 L102.97,737.019 L102.967,737.037 C103.957,737.18 103.459,737.046 104.454,737.468 C105.917,736.292 107.615,735.572 109.491,735.417 L109.489,735.399 L110.018,735.341 C110.093,735.333 110.167,735.327 110.243,735.322 L111.237,735.259 L111.432,735.25 L112.399,735.227 L112.602,735.226 z M112.52,740.226 L111.553,740.249 L110.559,740.312 L110.029,740.37 C108.54,740.359 106.416,741.867 105.286,743.737 C104.155,745.607 104.447,747.131 105.937,747.141 L106.301,747.205 L107.065,747.317 L107.817,747.437 L108.556,747.565 L109.285,747.698 L109.996,747.851 L110.69,748.023 L111.373,748.201 L112.04,748.399 L112.687,748.616 L113.316,748.852 L113.933,749.1 L114.534,749.364 L115.105,749.64 L115.938,750.09 L117.005,750.753 L118.012,751.475 L118.952,752.261 L119.825,753.107 L120.639,754.006 L121.388,754.958 L122.075,755.964 L122.696,757.018 L123.261,758.116 L123.764,759.256 L124.205,760.437 L124.585,761.655 L124.91,762.905 L125.177,764.185 L125.385,765.492 L125.536,766.824 L125.63,768.178 L125.668,769.549 L125.654,770.932 L125.591,772.324 L125.474,773.724 L125.306,775.128 L125.089,776.531 L124.822,777.931 L124.507,779.323 L124.147,780.704 L123.743,782.068 L123.301,783.412 L122.82,784.732 L122.302,786.024 L121.747,787.284 L121.16,788.508 L120.544,789.693 L119.899,790.834 L119.232,791.929 L118.543,792.974 L117.839,793.968 L117.118,794.912 L116.382,795.804 L115.631,796.646 L114.861,797.441 L114.07,798.192 L113.253,798.902 L112.403,799.575 L111.515,800.211 L110.582,800.813 L109.597,801.38 L108.557,801.907 L107.46,802.388 L106.305,802.817 L105.091,803.189 L103.82,803.497 L102.496,803.734 L101.119,803.893 L99.694,803.969 L98.187,803.955 L97.367,803.91 L97.43,803.915 L97.061,803.887 L96.287,803.795 L95.538,803.666 L94.816,803.5 L94.118,803.297 L93.446,803.059 L92.798,802.787 L92.174,802.482 L91.574,802.144 L90.998,801.775 L90.445,801.376 L89.915,800.948 L89.409,800.493 L88.925,800.01 L88.464,799.503 L88.024,798.971 L87.607,798.416 L87.211,797.839 L86.836,797.243 L86.486,796.638 L85.995,795.693 L85.404,794.365 L84.89,792.983 L84.451,791.56 L84.082,790.107 L83.778,788.616 L83.646,787.838 L83.652,787.881 L83.557,787.248 L83.407,785.888 L83.311,784.473 L83.266,783.013 L83.272,781.517 L83.325,779.992 L83.422,778.447 L83.559,776.893 L83.734,775.336 L83.942,773.789 L84.181,772.257 L84.443,770.753 L84.727,769.285 L85.031,767.861 L85.349,766.491 L85.684,765.168 L85.863,764.505 L85.856,764.531 L86.085,763.702 L86.576,761.985 L87.105,760.242 L87.674,758.502 L88.288,756.795 L88.962,755.129 L89.503,753.93 L89.866,753.19 L90.235,752.49 L90.605,751.835 L90.973,751.228 L91.338,750.673 L91.696,750.173 L92.046,749.724 L92.389,749.324 L92.732,748.963 L93.087,748.629 L93.469,748.314 L93.897,748.008 L94.385,747.712 L94.942,747.434 L95.574,747.183 L96.278,746.971 L97.056,746.801 L97.906,746.683 L98.849,746.629 L99.382,746.627 C100.374,746.686 101.84,745.692 102.657,744.409 C103.473,743.125 103.331,742.038 102.339,741.979 L101.849,741.917 L100.802,741.862 L99.737,741.897 L98.675,742.026 L97.609,742.254 L96.541,742.578 L95.466,743.001 L94.387,743.527 L93.313,744.158 L92.255,744.888 L91.231,745.7 L90.254,746.58 L89.334,747.508 L88.475,748.47 L87.678,749.454 L86.94,750.453 L86.255,751.461 L85.619,752.476 L85.029,753.496 L84.478,754.518 L83.727,756.026 L82.815,758.054 L81.99,760.093 L81.249,762.096 L80.586,764.041 L79.987,765.906 L79.705,766.81 C79.703,766.819 79.7,766.828 79.698,766.836 L79.494,767.506 L79.077,768.951 L78.669,770.471 L78.278,772.041 L77.908,773.656 L77.562,775.305 L77.249,776.98 L76.966,778.676 L76.72,780.383 L76.513,782.094 L76.35,783.801 L76.234,785.495 L76.171,787.169 L76.163,788.815 L76.219,790.423 L76.34,791.985 L76.43,792.77 C76.432,792.785 76.434,792.799 76.436,792.813 L76.545,793.604 L76.823,795.239 L77.179,796.878 L77.615,798.491 L78.137,800.068 L78.749,801.598 L79.276,802.718 L79.661,803.448 L80.067,804.149 L80.502,804.829 L80.964,805.487 L81.453,806.124 L81.972,806.735 L82.52,807.321 L83.099,807.88 L83.709,808.409 L84.352,808.908 L85.027,809.375 L85.736,809.808 L86.48,810.206 L87.259,810.565 L88.075,810.887 L88.926,811.166 L89.816,811.404 L90.744,811.596 L91.712,811.743 L92.238,811.801 C92.259,811.803 92.28,811.805 92.3,811.806 L93.105,811.871 L94.806,811.927 L96.534,811.879 L98.253,811.724 L99.964,811.464 L101.67,811.098 L103.37,810.626 L105.064,810.048 L106.751,809.363 L108.427,808.573 L110.091,807.677 L111.735,806.677 L113.351,805.58 L114.931,804.392 L116.469,803.121 L117.955,801.778 L119.383,800.37 L120.748,798.908 L122.046,797.402 L123.275,795.857 L124.436,794.281 L125.523,792.68 L126.542,791.058 L127.494,789.419 L128.38,787.765 L129.202,786.1 L129.96,784.426 L130.655,782.746 L131.29,781.06 L131.862,779.372 L132.368,777.685 L132.814,776 L133.2,774.32 L133.525,772.646 L133.789,770.981 L133.992,769.328 L134.134,767.689 L134.213,766.065 L134.226,764.464 L134.172,762.886 L134.055,761.334 L133.872,759.809 L133.624,758.315 L133.31,756.854 L132.926,755.431 L132.47,754.052 L131.945,752.715 L131.35,751.424 L130.683,750.183 L129.938,748.998 L129.12,747.87 L128.228,746.801 L127.26,745.796 L126.209,744.862 L125.081,743.998 L123.875,743.208 L122.583,742.502 L121.548,742.021 L120.828,741.726 L120.099,741.457 L119.348,741.214 L118.572,740.997 L117.776,740.805 L116.96,740.635 L116.123,740.489 L115.256,740.38 L114.368,740.298 L113.459,740.241 L112.52,740.226 z M102.349,751 C99.969,751.66 100.968,751.565 99.399,751.61 L99.399,751.627 L99.002,751.629 L98.392,751.664 L97.933,751.727 L97.534,751.814 L97.221,751.908 L96.984,752.003 L96.803,752.093 L96.654,752.184 L96.518,752.281 L96.39,752.386 L96.26,752.508 L96.103,752.674 L95.917,752.891 L95.702,753.166 L95.462,753.501 L95.201,753.899 L94.92,754.362 L94.627,754.882 L94.322,755.46 L94.027,756.06 L93.559,757.096 L92.961,758.578 L92.404,760.125 L91.874,761.746 L91.383,763.361 L90.904,765.035 L90.691,765.805 L90.691,765.807 L90.531,766.396 L90.219,767.625 L89.921,768.903 L89.636,770.235 L89.369,771.611 L89.121,773.027 L88.89,774.51 L88.696,775.949 L88.535,777.391 L88.408,778.826 L88.319,780.234 L88.271,781.612 L88.267,782.945 L88.306,784.229 L88.388,785.445 L88.517,786.603 L88.58,787.029 L88.693,787.698 L88.958,788.992 L89.265,790.206 L89.626,791.372 L90.036,792.475 L90.502,793.524 L90.87,794.233 L91.116,794.656 L91.39,795.092 L91.668,795.497 L91.952,795.875 L92.244,796.228 L92.542,796.556 L92.848,796.861 L93.161,797.143 L93.482,797.402 L93.81,797.639 L94.15,797.856 L94.501,798.054 L94.865,798.232 L95.25,798.393 L95.651,798.535 L96.077,798.659 L96.526,798.763 L97.007,798.846 L97.544,798.909 L97.678,798.919 L98.349,798.957 L99.582,798.968 L100.697,798.908 L101.768,798.784 L102.792,798.602 L103.769,798.365 L104.701,798.08 L105.583,797.751 L106.423,797.383 L107.218,796.98 L107.977,796.543 L108.702,796.076 L109.393,795.581 L110.06,795.052 L110.704,794.492 L111.343,793.886 L111.969,793.239 L112.587,792.548 L113.203,791.801 L113.81,791.006 L114.414,790.153 L115.008,789.252 L115.587,788.302 L116.147,787.309 L116.688,786.271 L117.203,785.197 L117.692,784.086 L118.151,782.942 L118.576,781.774 L118.97,780.578 L119.33,779.362 L119.648,778.142 L119.926,776.914 L120.161,775.68 L120.353,774.446 L120.499,773.22 L120.6,772.004 L120.655,770.792 L120.667,769.593 L120.635,768.422 L120.555,767.279 L120.429,766.165 L120.258,765.09 L120.04,764.045 L119.776,763.029 L119.473,762.059 L119.13,761.141 L118.745,760.268 L118.317,759.435 L117.851,758.646 L117.354,757.916 L116.816,757.234 L116.229,756.584 L115.604,755.979 L114.947,755.43 L114.226,754.913 L113.428,754.417 L112.829,754.094 L112.44,753.906 L111.991,753.708 L111.506,753.513 L111.017,753.33 L110.532,753.167 L110.027,753.017 L109.492,752.877 L108.872,752.724 L108.308,752.602 L107.7,752.491 L107.029,752.374 L106.342,752.264 L105.578,752.153 L105.44,752.13 L105.091,752.069 C104.079,752.038 103.121,751.627 102.349,751 z" fill="#000000"/>
      <path d="M111.537,759.461 C112.11,759.502 112.185,760.141 111.704,760.888 L112.051,761.227 L112.008,761.835 L111.835,762.453 L111.62,763.103 L111.341,763.786 L111.027,764.5 L110.49,765.638 L109.696,767.247 L108.833,768.943 L107.906,770.721 L106.921,772.564 L105.345,775.42 L103.191,779.288 L101.527,782.166 L100.402,784.049 L99.272,785.885 L98.134,787.657 L97.556,788.515 C97.025,789.577 95.841,790.546 94.912,790.679 C93.982,790.812 93.659,790.059 94.19,788.997 L94.445,788.187 L95.036,786.494 L95.708,784.719 L96.445,782.877 L97.66,780.021 L99.442,776.137 L100.837,773.236 L101.818,771.327 L102.832,769.458 L103.872,767.644 L104.929,765.911 L105.742,764.671 L106.305,763.87 L106.884,763.096 L107.506,762.353 L108.147,761.646 L108.894,761 L109.628,760.74 C110.109,759.993 110.964,759.42 111.537,759.461 z" fill="#FFFFFF"/>
      <path d="M111.892,754.473 L111.893,754.474 C114.578,754.665 116.673,756.688 116.982,759.328 C117.006,760.491 117.104,760.11 116.998,760.51 L117.039,761.583 L116.995,762.191 C116.971,762.525 116.914,762.857 116.824,763.179 L116.651,763.798 C116.63,763.874 116.607,763.949 116.582,764.024 L116.367,764.674 C116.331,764.782 116.292,764.889 116.248,764.995 L115.97,765.677 L115.917,765.8 L115.603,766.515 L115.549,766.632 L114.973,767.852 L114.152,769.513 L113.266,771.255 L112.315,773.078 L111.299,774.979 L109.714,777.853 L107.52,781.79 L105.82,784.731 L104.66,786.669 L103.479,788.587 L102.34,790.359 L102.281,790.449 L101.73,791.268 C100.44,793.602 98.17,795.066 95.621,795.629 C93.088,795.991 90.515,794.838 89.408,792.258 C88.762,790.728 88.815,789.035 89.427,787.494 L89.422,787.492 L89.677,786.683 L89.724,786.54 L90.315,784.847 L90.359,784.725 L91.065,782.862 L91.803,781.019 L91.844,780.918 L93.06,778.063 L93.116,777.936 L94.936,773.97 L96.331,771.069 L96.39,770.951 L97.371,769.042 L97.423,768.943 L98.436,767.074 L98.494,766.971 L99.534,765.157 L99.604,765.038 L100.662,763.306 L100.748,763.17 L101.561,761.93 L101.65,761.798 L102.213,760.997 L102.301,760.875 L102.88,760.1 C102.935,760.027 102.992,759.956 103.05,759.886 L103.672,759.143 L103.803,758.993 L104.445,758.285 C104.58,758.136 104.725,757.996 104.877,757.864 L105.624,757.218 C106.497,756.595 106.099,756.808 106.771,756.497 C108.103,755.025 109.973,754.494 111.892,754.474 z M111.537,759.461 C110.964,759.42 110.109,759.993 109.628,760.74 L108.894,761 L108.147,761.646 L107.506,762.353 L106.884,763.096 L106.305,763.87 L105.742,764.671 L104.929,765.911 L103.872,767.644 L102.832,769.458 L101.818,771.327 L100.837,773.236 L99.442,776.137 L97.66,780.021 L96.445,782.876 L95.708,784.719 L95.036,786.494 L94.445,788.187 L94.19,788.997 C93.659,790.059 93.982,790.812 94.912,790.679 C95.841,790.546 97.025,789.577 97.556,788.515 L98.134,787.657 L99.272,785.884 L100.402,784.049 L101.527,782.166 L103.191,779.288 L105.345,775.42 L106.921,772.564 L107.906,770.721 L108.833,768.943 L109.696,767.247 L110.49,765.638 L111.027,764.5 L111.341,763.786 L111.62,763.103 L111.835,762.453 L112.008,761.835 L112.051,761.227 L111.704,760.888 C112.185,760.141 112.11,759.502 111.537,759.461 z" fill="#000000"/>
      <path d="M161.183,732.403 C161.812,732.401 162.088,732.64 162.19,733.228 L162.905,733.388 L164.256,733.838 L164.346,735.169 L164.442,736.582 L164.539,738.069 L164.627,739.623 L164.762,742.035 L164.917,745.354 L165.052,748.69 L165.13,751.148 L165.174,752.741 L165.205,754.282 L165.225,755.76 L165.231,756.476 L165.231,756.492 L165.234,757.935 L165.206,760.861 L165.135,763.637 C165.556,763.322 166.059,763.289 166.548,763.435 L167.523,762.99 L168.841,762.883 L169.964,763.057 L170.875,763.532 L172.262,764.294 L174.133,765.397 L176.011,766.603 L177.865,767.906 L179.224,768.95 L180.115,769.682 L180.985,770.44 L181.832,771.225 L182.653,772.039 L183.443,772.879 L184.199,773.747 L184.919,774.644 L185.599,775.569 L186.234,776.526 L186.821,777.514 L187.356,778.534 L187.834,779.588 L188.253,780.678 L188.608,781.804 L188.893,782.97 L189.103,784.177 L189.233,785.427 L189.276,786.725 L189.232,788.015 L189.185,788.587 C189.181,788.63 189.176,788.673 189.17,788.716 L189.112,789.116 L188.954,789.865 L188.606,790.982 L188.009,792.385 L187.258,793.773 L186.39,795.125 L185.431,796.431 L184.4,797.688 L183.312,798.899 L182.174,800.067 L180.993,801.196 L179.775,802.285 L178.527,803.336 L177.251,804.349 L175.953,805.321 L174.638,806.25 L173.312,807.134 L171.979,807.969 L170.644,808.754 L169.312,809.481 L167.987,810.148 L166.675,810.748 L165.38,811.273 L164.106,811.717 L162.901,812.058 L162.035,812.247 L161.441,812.343 L160.86,812.408 L160.293,812.439 L159.74,812.433 L159.208,812.385 L158.698,812.295 L158.214,812.157 L157.761,811.97 L157.343,811.731 L156.967,811.438 L156.636,811.09 L156.356,810.688 L156.129,810.234 L155.959,809.73 L155.855,809.242 L155.831,809.081 C155.828,809.053 155.824,809.026 155.821,808.998 L155.658,807.507 L155.398,804.554 L155.215,801.595 L155.099,798.632 L155.047,795.664 L155.049,792.686 L155.128,788.237 L155.326,782.339 L155.59,776.472 L155.835,770.649 L155.975,766.31 L156.033,763.431 L156.048,761.979 L156.048,761.995 L156.052,761.301 L156.051,759.843 L156.046,758.312 L156.036,756.725 L156.01,754.262 L155.97,750.889 L155.924,747.515 L155.901,745.039 L155.885,743.444 L155.88,741.9 L155.878,740.424 L155.878,739.034 L157.146,736.956 L157.825,735.933 C157.795,734.987 158.748,733.614 159.953,732.867 C160.635,732.499 160.234,732.675 161.183,732.403 z M164.865,770.907 L164.854,771.166 L164.591,777.055 L164.356,782.924 L164.252,787.29 L164.231,790.178 L164.256,793.063 L164.333,795.937 L164.475,798.796 L164.69,801.638 L164.823,803.01 L164.837,803.12 L164.871,803.242 L164.902,803.286 L164.936,803.319 L164.975,803.346 L165.018,803.369 L165.07,803.39 L165.132,803.41 L165.209,803.428 L165.303,803.444 L165.416,803.454 L165.551,803.459 L165.708,803.455 L165.889,803.442 L166.094,803.416 L166.322,803.377 L166.751,803.282 L167.378,803.101 L168.042,802.866 L168.775,802.568 L169.564,802.21 L170.397,801.795 L171.265,801.327 L172.154,800.812 L173.054,800.255 L173.952,799.664 L174.839,799.046 L175.702,798.409 L176.531,797.762 L177.314,797.112 L178.039,796.47 L178.696,795.846 L179.275,795.253 L179.766,794.704 L180.16,794.212 L180.457,793.79 L180.657,793.447 L180.774,793.182 L180.824,792.985 L180.81,792.943 L180.796,792.942 L180.787,792.973 L180.772,793.102 L180.833,792.519 L180.883,791.532 L180.863,790.597 L180.779,789.661 L180.632,788.726 L180.423,787.796 L180.153,786.872 L179.824,785.957 L179.438,785.052 L178.998,784.159 L178.507,783.281 L177.969,782.417 L177.385,781.569 L176.759,780.738 L176.094,779.926 L175.393,779.133 L174.66,778.359 L173.898,777.605 L173.11,776.871 L172.301,776.159 L171.046,775.125 L169.331,773.826 L167.595,772.621 L165.859,771.508 L164.865,770.907 z" fill="#FFFFFF"/>
      <path d="M161.168,727.403 C162.843,727.431 163.758,727.767 165.027,728.825 L165.838,729.095 C167.762,729.737 169.107,731.477 169.244,733.5 L169.334,734.828 L169.432,736.258 L169.531,737.785 L169.62,739.344 L169.757,741.801 L169.913,745.152 L170.05,748.531 L170.129,751.011 L170.173,752.638 L170.205,754.216 L170.225,755.718 L170.231,756.476 L170.231,756.479 L170.234,757.982 L170.233,758.039 L170.729,758.115 C171.269,758.199 171.791,758.371 172.276,758.623 L173.187,759.098 L173.284,759.15 L174.671,759.913 L174.801,759.987 L176.672,761.09 L176.833,761.189 L178.711,762.394 L178.887,762.513 L180.741,763.816 L180.91,763.941 L182.269,764.984 L182.399,765.088 L183.29,765.82 L183.398,765.912 L184.269,766.67 L184.384,766.773 L185.231,767.558 L185.352,767.674 L186.172,768.487 L186.295,768.613 L187.085,769.453 L187.212,769.593 L187.968,770.461 L188.099,770.617 L188.819,771.514 L188.951,771.686 L189.63,772.612 C189.676,772.674 189.72,772.738 189.763,772.802 L190.399,773.759 C190.445,773.829 190.49,773.9 190.532,773.972 L191.119,774.96 C191.165,775.037 191.209,775.115 191.25,775.194 L191.785,776.215 C191.828,776.297 191.869,776.381 191.908,776.466 L192.386,777.52 C192.428,777.61 192.466,777.702 192.501,777.794 L192.92,778.883 C192.957,778.98 192.992,779.078 193.023,779.177 L193.377,780.303 C193.41,780.407 193.439,780.511 193.464,780.616 L193.749,781.782 C193.776,781.891 193.799,782.001 193.818,782.111 L194.029,783.318 C194.049,783.432 194.065,783.546 194.076,783.66 L194.206,784.911 C194.218,785.027 194.226,785.144 194.23,785.261 L194.273,786.558 C194.277,786.671 194.277,786.785 194.273,786.898 L194.229,788.187 C194.226,788.267 194.221,788.346 194.215,788.425 L194.164,789.044 C194.153,789.156 194.141,789.266 194.119,789.43 L194.061,789.83 C194.046,789.938 194.026,790.045 194.004,790.152 L193.845,790.901 C193.813,791.052 193.774,791.202 193.728,791.35 L193.381,792.467 C193.331,792.628 193.273,792.786 193.207,792.941 L192.609,794.344 C192.548,794.487 192.481,794.626 192.407,794.763 L191.657,796.151 C191.597,796.262 191.533,796.37 191.465,796.476 L190.597,797.827 C190.541,797.915 190.481,798.001 190.42,798.086 L189.46,799.391 C189.408,799.462 189.354,799.532 189.298,799.6 L188.267,800.858 C188.219,800.917 188.17,800.974 188.119,801.031 L187.03,802.242 L186.893,802.388 L185.755,803.556 L185.628,803.682 L184.447,804.811 L184.327,804.922 L183.109,806.011 L182.995,806.111 L181.746,807.161 L181.635,807.253 L180.359,808.265 L180.248,808.35 L178.951,809.322 L178.838,809.404 L177.523,810.333 L177.411,810.41 L176.085,811.294 L175.968,811.37 L174.635,812.205 L174.511,812.281 L173.176,813.065 L173.041,813.141 L171.71,813.869 L171.56,813.948 L170.235,814.614 L170.066,814.696 L168.753,815.295 L168.555,815.381 L167.26,815.906 C167.182,815.938 167.103,815.968 167.024,815.996 L165.749,816.439 C165.656,816.472 165.563,816.501 165.468,816.528 L164.264,816.869 C164.165,816.897 164.066,816.922 163.966,816.944 L163.1,817.132 C163.012,817.152 162.924,817.168 162.835,817.183 L162.241,817.279 C162.16,817.292 162.079,817.303 161.997,817.312 L161.415,817.377 C161.32,817.388 161.225,817.396 161.129,817.401 L160.562,817.432 C160.453,817.438 160.344,817.44 160.235,817.439 L159.683,817.432 C159.555,817.431 159.426,817.424 159.298,817.413 L158.765,817.366 C158.62,817.353 158.475,817.334 158.331,817.308 L157.821,817.217 C157.657,817.188 157.494,817.15 157.333,817.105 L156.85,816.968 C156.665,816.915 156.484,816.853 156.306,816.779 L155.853,816.592 C155.655,816.51 155.461,816.415 155.275,816.308 L154.857,816.069 C154.653,815.952 154.457,815.821 154.272,815.676 L153.895,815.383 C153.699,815.23 153.514,815.063 153.343,814.883 L153.012,814.535 C152.838,814.352 152.679,814.156 152.535,813.95 L152.254,813.548 C152.115,813.347 151.99,813.137 151.881,812.918 L151.654,812.464 C151.552,812.259 151.465,812.048 151.392,811.832 L151.222,811.327 C151.161,811.148 151.111,810.964 151.071,810.778 L150.966,810.291 C150.943,810.182 150.923,810.072 150.907,809.962 L150.878,809.761 C150.862,809.64 150.862,809.64 150.851,809.542 L150.688,808.052 L150.677,807.946 L150.417,804.993 L150.407,804.864 L150.224,801.905 L150.218,801.79 L150.103,798.827 L150.1,798.72 L150.047,795.66 L150.05,792.598 L150.131,788.069 L150.331,782.115 L150.594,776.262 L150.837,770.487 L150.976,766.209 L151.033,763.379 L151.048,761.927 L151.048,761.927 L151.051,761.302 L151.051,759.861 L151.046,758.343 L151.036,756.778 L151.01,754.321 L150.97,750.957 L150.924,747.562 L150.902,745.091 L150.885,743.462 L150.879,741.904 L150.878,740.426 L150.878,739.036 C150.878,738.116 151.131,737.214 151.61,736.429 L152.879,734.351 L152.979,734.194 L153.236,733.805 C153.768,731.54 155.483,729.904 157.319,728.617 C157.404,728.564 157.491,728.514 157.58,728.466 C157.665,728.42 157.89,728.296 157.923,728.278 C158.216,728.12 158.477,727.998 158.826,727.876 C159.096,727.782 159.708,727.624 159.806,727.596 C160.249,727.469 160.707,727.404 161.168,727.403 z M161.183,732.403 C160.234,732.675 160.635,732.499 159.953,732.867 C158.748,733.614 157.795,734.987 157.825,735.933 L157.146,736.956 L155.878,739.034 L155.878,740.424 L155.879,741.9 L155.885,743.444 L155.901,745.039 L155.924,747.515 L155.97,750.889 L156.01,754.262 L156.036,756.725 L156.046,758.312 L156.051,759.843 L156.051,761.301 L156.048,761.995 L156.048,761.979 L156.033,763.431 L155.975,766.31 L155.835,770.649 L155.59,776.472 L155.326,782.339 L155.128,788.237 L155.049,792.686 L155.047,795.664 L155.099,798.632 L155.214,801.595 L155.398,804.554 L155.658,807.507 L155.821,808.998 C155.824,809.026 155.828,809.053 155.831,809.081 L155.855,809.242 L155.959,809.73 L156.129,810.234 L156.356,810.688 L156.636,811.09 L156.967,811.438 L157.343,811.731 L157.761,811.97 L158.214,812.157 L158.697,812.294 L159.208,812.385 L159.74,812.433 L160.292,812.439 L160.86,812.408 L161.441,812.343 L162.035,812.247 L162.901,812.058 L164.105,811.717 L165.38,811.273 L166.675,810.748 L167.987,810.148 L169.312,809.481 L170.644,808.754 L171.979,807.969 L173.312,807.134 L174.638,806.25 L175.953,805.321 L177.25,804.349 L178.527,803.336 L179.775,802.285 L180.993,801.196 L182.174,800.067 L183.312,798.899 L184.4,797.688 L185.431,796.431 L186.39,795.125 L187.258,793.773 L188.009,792.385 L188.606,790.982 L188.954,789.865 L189.112,789.116 L189.17,788.716 C189.176,788.673 189.181,788.63 189.184,788.587 L189.232,788.015 L189.276,786.725 L189.233,785.427 L189.103,784.177 L188.893,782.97 L188.608,781.804 L188.253,780.678 L187.834,779.588 L187.355,778.534 L186.821,777.514 L186.234,776.526 L185.598,775.569 L184.919,774.644 L184.199,773.747 L183.443,772.879 L182.652,772.039 L181.832,771.225 L180.985,770.44 L180.114,769.682 L179.224,768.95 L177.865,767.906 L176.011,766.603 L174.133,765.397 L172.262,764.294 L170.875,763.532 L169.964,763.057 L168.841,762.883 L167.523,762.99 L166.548,763.435 C166.059,763.289 165.556,763.322 165.135,763.637 L165.206,760.861 L165.234,757.935 L165.231,756.492 L165.231,756.476 L165.225,755.76 L165.205,754.282 L165.174,752.741 L165.13,751.148 L165.052,748.69 L164.917,745.354 L164.762,742.035 L164.627,739.623 L164.539,738.069 L164.442,736.582 L164.346,735.169 L164.256,733.838 L162.905,733.388 L162.19,733.228 C162.088,732.64 161.812,732.401 161.183,732.403 z M164.864,770.907 L165.859,771.508 L167.595,772.621 L169.331,773.826 L171.046,775.125 L172.301,776.159 L173.11,776.871 L173.897,777.605 L174.66,778.359 L175.392,779.133 L176.093,779.926 L176.759,780.738 L177.385,781.569 L177.969,782.417 L178.507,783.281 L178.998,784.159 L179.438,785.052 L179.824,785.957 L180.153,786.872 L180.423,787.796 L180.632,788.726 L180.779,789.661 L180.863,790.597 L180.883,791.532 L180.833,792.519 L180.772,793.102 L180.787,792.973 L180.796,792.942 L180.81,792.943 L180.824,792.985 L180.774,793.182 L180.657,793.447 L180.456,793.79 L180.16,794.212 L179.766,794.704 L179.275,795.253 L178.696,795.846 L178.039,796.47 L177.314,797.112 L176.531,797.762 L175.702,798.409 L174.839,799.046 L173.952,799.664 L173.054,800.255 L172.154,800.812 L171.265,801.327 L170.397,801.795 L169.564,802.21 L168.775,802.568 L168.042,802.866 L167.378,803.101 L166.75,803.282 L166.322,803.377 L166.093,803.416 L165.889,803.442 L165.708,803.455 L165.551,803.459 L165.416,803.454 L165.303,803.444 L165.209,803.428 L165.132,803.41 L165.07,803.39 L165.018,803.369 L164.974,803.346 L164.936,803.319 L164.902,803.286 L164.871,803.242 L164.837,803.12 L164.823,803.01 L164.69,801.638 L164.475,798.796 L164.333,795.937 L164.256,793.063 L164.231,790.178 L164.252,787.29 L164.356,782.924 L164.591,777.055 L164.854,771.166 L164.864,770.907 z M169.464,780.323 L169.355,783.044 L169.252,787.325 L169.231,790.135 L169.254,792.93 L169.329,795.744 L169.374,796.643 L169.584,796.522 L170.364,796.04 L171.15,795.522 L171.923,794.984 L172.679,794.426 L173.392,793.868 L174.061,793.313 L174.66,792.783 L175.185,792.285 L175.621,791.839 L175.876,791.553 L175.88,791.458 L175.868,790.874 L175.814,790.272 L175.719,789.665 L175.58,789.048 L175.396,788.42 L175.168,787.786 L174.892,787.139 L174.57,786.485 L174.2,785.822 L173.786,785.159 L173.329,784.494 L172.827,783.829 L172.284,783.165 L171.704,782.509 L171.084,781.856 L170.434,781.212 L169.753,780.577 L169.464,780.323 z" fill="#000000"/>
      <path d="M58.506,760.731 C60.692,760.526 61.343,762.45 59.96,765.028 C58.577,767.606 55.684,769.863 53.498,770.068 L52.93,770.137 L51.798,770.299 L50.747,770.481 L49.773,770.685 L48.884,770.906 L48.082,771.134 L47.369,771.369 L46.748,771.603 L46.225,771.827 L45.8,772.029 L45.472,772.201 L45.237,772.336 L45.081,772.43 L44.989,772.485 L44.936,772.51 L44.895,772.525 L44.848,772.552 L44.779,772.614 L44.683,772.728 L44.561,772.906 L44.418,773.151 L44.258,773.466 L44.094,773.845 L43.932,774.283 L43.777,774.775 L43.635,775.313 L43.509,775.897 L43.395,776.518 L43.3,777.175 L43.227,777.835 L43.151,778.898 L43.116,780.427 L43.148,782.036 L43.25,783.701 L43.406,785.42 L43.607,787.183 L43.853,788.965 L44.255,791.71 L44.831,795.431 L45.235,798.237 L45.471,800.107 L45.651,801.983 L45.751,803.868 L45.761,805.753 L45.493,807.737 L44.701,809.116 C44.806,809.958 43.974,811.258 42.844,812.02 C41.713,812.782 40.712,812.718 40.607,811.876 L39.621,811.694 L38.88,810.479 L38.321,809.068 L37.774,807.574 L37.247,806.001 L36.735,804.364 L35.982,801.825 L35.047,798.33 L34.421,795.649 L34.066,793.83 L33.758,792.019 L33.513,790.204 L33.342,788.388 L33.246,786.578 L33.249,784.766 L33.321,783.38 L33.407,782.438 L33.523,781.519 L33.676,780.592 L33.871,779.655 L34.109,778.705 L34.397,777.74 L34.739,776.756 L35.146,775.747 L35.625,774.71 L36.192,773.643 L36.851,772.548 L37.612,771.431 L38.478,770.304 L39.445,769.187 L40.501,768.103 L41.628,767.078 L42.804,766.13 L44.005,765.273 L45.217,764.509 L46.432,763.835 L47.645,763.247 L48.858,762.737 L50.074,762.296 L51.302,761.914 L52.546,761.589 L53.81,761.318 L55.1,761.094 L56.425,760.915 L57.784,760.783 L58.506,760.731 z" fill="#FFFFFF"/>
      <path d="M59.238,755.729 C62.201,756.026 64.135,757.554 65.308,760.233 C66.09,762.547 65.633,765.028 64.366,767.391 C62.154,771.317 58.563,774.21 54.098,775.022 L54.099,775.032 L53.585,775.094 L52.58,775.238 L51.685,775.393 L50.889,775.56 L50.173,775.737 L49.548,775.916 L49.034,776.085 L48.613,776.243 L48.554,776.268 L48.498,776.481 L48.413,776.874 L48.331,777.326 L48.26,777.81 L48.207,778.289 L48.147,779.134 L48.117,780.432 L48.145,781.833 L48.236,783.323 L48.38,784.91 L48.569,786.56 L48.8,788.241 L49.196,790.945 L49.78,794.718 L50.195,797.611 L50.431,799.482 L50.448,799.63 L50.628,801.506 L50.644,801.718 L50.743,803.603 C50.748,803.682 50.75,803.761 50.75,803.84 L50.761,805.725 C50.763,805.958 50.747,806.192 50.716,806.423 L50.448,808.408 C50.361,809.048 50.151,809.666 49.829,810.227 L49.412,810.953 C49.035,813.195 47.372,814.85 45.639,816.165 C44.247,817.104 42.681,817.646 41.02,817.539 C39.928,817.433 38.779,817.152 37.951,816.385 C36.756,816.13 36.031,815.185 35.352,814.297 L34.611,813.081 C34.463,812.838 34.336,812.584 34.231,812.32 L33.673,810.909 L33.626,810.788 L33.079,809.294 L33.033,809.163 L32.506,807.59 L32.474,807.493 L31.941,805.786 L31.188,803.247 L31.151,803.117 L30.216,799.622 L30.177,799.466 L29.552,796.786 L29.513,796.605 L29.159,794.786 L29.137,794.668 L28.829,792.857 L28.803,792.688 L28.558,790.873 L28.535,790.674 L28.364,788.857 L28.349,788.651 L28.253,786.842 C28.249,786.751 28.246,786.661 28.246,786.57 L28.249,784.757 C28.249,784.674 28.252,784.59 28.256,784.507 L28.328,783.121 L28.342,782.925 L28.428,781.983 L28.447,781.811 L28.563,780.891 L28.59,780.708 L28.742,779.781 L28.781,779.572 L28.976,778.636 L29.021,778.437 L29.26,777.487 L29.317,777.278 L29.604,776.313 C29.626,776.241 29.65,776.169 29.674,776.097 L30.017,775.112 C30.044,775.036 30.072,774.961 30.102,774.887 L30.508,773.878 C30.539,773.801 30.573,773.724 30.608,773.648 L31.087,772.611 C31.125,772.529 31.166,772.447 31.209,772.366 L31.775,771.299 C31.817,771.219 31.862,771.141 31.909,771.063 L32.568,769.968 C32.616,769.888 32.667,769.81 32.719,769.733 L33.48,768.616 C33.534,768.537 33.589,768.46 33.647,768.385 L34.513,767.258 C34.572,767.181 34.633,767.106 34.697,767.032 L35.664,765.915 C35.728,765.841 35.795,765.768 35.863,765.698 L36.919,764.613 C36.99,764.541 37.062,764.471 37.137,764.403 L38.264,763.378 C38.337,763.312 38.413,763.247 38.49,763.185 L39.666,762.237 C39.742,762.176 39.82,762.117 39.899,762.06 L41.1,761.203 C41.178,761.147 41.258,761.094 41.339,761.043 L42.551,760.279 C42.63,760.229 42.71,760.182 42.792,760.136 L44.006,759.463 C44.087,759.418 44.169,759.375 44.251,759.335 L45.465,758.747 C45.545,758.709 45.626,758.672 45.708,758.637 L46.921,758.128 C46.997,758.096 47.074,758.066 47.152,758.037 L48.368,757.596 C48.442,757.569 48.516,757.544 48.591,757.521 L49.819,757.139 C49.89,757.117 49.963,757.097 50.035,757.078 L51.279,756.752 C51.352,756.733 51.425,756.715 51.499,756.7 L52.762,756.429 L52.956,756.391 L54.247,756.168 L54.429,756.139 L55.754,755.96 L55.943,755.938 L57.302,755.806 L57.422,755.796 L58.144,755.744 L58.144,755.75 L59.238,755.729 z M58.506,760.731 L57.784,760.783 L56.425,760.915 L55.1,761.094 L53.81,761.318 L52.546,761.589 L51.302,761.914 L50.074,762.296 L48.858,762.737 L47.645,763.247 L46.432,763.835 L45.217,764.508 L44.005,765.273 L42.804,766.13 L41.628,767.078 L40.501,768.102 L39.445,769.187 L38.478,770.304 L37.612,771.431 L36.851,772.548 L36.192,773.643 L35.625,774.71 L35.146,775.747 L34.739,776.756 L34.397,777.74 L34.109,778.705 L33.871,779.655 L33.676,780.592 L33.523,781.519 L33.407,782.438 L33.321,783.38 L33.249,784.765 L33.246,786.578 L33.342,788.388 L33.513,790.204 L33.758,792.019 L34.066,793.83 L34.421,795.649 L35.047,798.33 L35.981,801.825 L36.735,804.364 L37.247,806.001 L37.774,807.574 L38.321,809.068 L38.88,810.478 L39.621,811.694 L40.607,811.876 C40.712,812.718 41.713,812.782 42.844,812.02 C43.974,811.258 44.806,809.958 44.701,809.116 L45.493,807.737 L45.761,805.753 L45.75,803.868 L45.651,801.983 L45.471,800.107 L45.235,798.237 L44.831,795.431 L44.255,791.71 L43.853,788.965 L43.607,787.183 L43.406,785.42 L43.25,783.701 L43.148,782.036 L43.116,780.427 L43.151,778.898 L43.227,777.835 L43.3,777.175 L43.395,776.518 L43.508,775.896 L43.635,775.313 L43.777,774.775 L43.931,774.283 L44.094,773.845 L44.258,773.466 L44.418,773.151 L44.561,772.906 L44.683,772.728 L44.779,772.614 L44.848,772.552 L44.895,772.524 L44.936,772.51 L44.989,772.484 L45.081,772.43 L45.237,772.336 L45.472,772.201 L45.8,772.029 L46.225,771.827 L46.748,771.603 L47.369,771.369 L48.082,771.134 L48.883,770.906 L49.773,770.685 L50.747,770.481 L51.798,770.299 L52.93,770.137 L53.498,770.068 C55.684,769.863 58.577,767.606 59.959,765.028 C61.343,762.45 60.692,760.526 58.506,760.731 z" fill="#000000"/>
    </g>
  </g>
</svg>
